<svg width="74" height="100" viewBox="0 0 74 100" fill="none" xmlns="http://www.w3.org/2000/svg">
<g clip-path="url(#clip0_495_1732)">
<path d="M71.8547 16.5027C71.6063 17.5535 70.7676 18.3642 69.8203 18.7454C68.8728 19.1266 67.8283 19.1309 66.8231 19.0053C65.5631 18.848 64.3029 18.4833 63.2424 17.7374C62.1822 16.9915 61.3377 15.8302 61.1169 14.4922C60.8963 13.1541 61.3815 11.6597 62.442 10.9139L61.7792 10.6736C60.1632 9.94394 58.1855 10.6243 57.0072 12.0158C55.829 13.4074 55.3724 15.3709 55.4401 17.248C55.5078 19.1251 56.0512 20.9435 56.6625 22.7043C57.064 23.8615 57.556 25.0838 58.5377 25.7308C59.4082 26.3046 60.4969 26.3104 61.5161 26.2286C64.0873 26.0224 66.7021 25.331 68.7611 23.6689C70.8201 22.0069 72.2227 19.2361 71.8547 16.5027Z" fill="#CFBF8B"/>
<path d="M20.9856 0.296975C20.2097 0.933632 19.7573 1.91334 19.1908 2.74824C18.3249 4.12575 17.5373 5.55798 16.8324 7.0371C15.2291 10.4449 13.9308 14.0076 12.9549 17.6777C11.4767 18.7351 9.99462 19.8977 9.18764 21.6453C7.9481 24.3441 7.599 27.4131 8.19732 30.3517C8.55235 32.7723 9.45987 35.0615 10.8393 37.0162C11.7788 38.4105 13.0071 39.5306 14.3308 40.4887C13.9876 40.099 13.6575 39.6962 13.3301 39.2912C12.0407 37.7928 10.9138 35.2269 10.5317 34.0689C9.75866 31.418 9.67569 29.7884 9.49145 27.9575C9.36481 25.4646 9.64565 23.8809 10.2382 21.8442C10.6542 20.516 11.7992 19.0735 12.9257 17.7854C12.9111 17.8412 12.8948 17.8964 12.8803 17.9522C12.9243 17.8624 12.9701 17.7736 13.0143 17.6838C13.0526 17.6403 13.0911 17.5952 13.1293 17.5521C13.1038 17.5703 13.0781 17.5892 13.0524 17.6074C15.5553 12.5523 18.3168 7.64903 21.3244 2.92004C21.3172 7.54589 20.8746 12.5116 20.9326 17.2274C21.4422 14.246 21.8979 11.2548 22.3338 8.26012C22.628 6.10263 23.0159 3.93219 22.9648 1.74417C23.0438 0.49101 22.0732 -0.525232 20.9856 0.296975Z" fill="black"/>
<path d="M43.9169 10.6351C43.6938 8.62811 43.7006 6.52889 43.0445 4.61521C42.7597 3.69427 41.8024 3.0379 40.9596 3.60412C40.4418 3.95713 40.1677 4.56636 39.891 5.13066C39.4569 6.02171 39.0476 6.92619 38.6433 7.83301C37.5309 10.3189 36.3515 12.7918 35.5423 15.4073C35.5501 15.3257 35.558 15.2439 35.5656 15.1622C35.6708 14.0144 35.6706 12.8237 35.2639 11.7381C33.6827 6.87904 29.293 7.03737 25.6491 9.14782C24.1877 10.0837 23.0182 11.4485 21.8457 12.7511C23.7461 11.4506 25.6056 9.9361 27.8757 9.49673C30.9714 8.61106 33.3336 9.22007 34.7925 12.4072C35.2602 13.335 35.3957 14.4037 35.5343 15.4348C35.2895 16.2172 35.0845 17.0131 34.92 17.8192C36.7512 13.9887 39.3406 10.6651 41.2664 6.89374C41.3407 6.75938 41.4126 6.62347 41.4854 6.48809C42.1001 10.0539 42.6892 13.6249 43.4534 17.1594C43.7347 18.5345 44.0032 19.9126 44.2932 21.2856C44.2951 21.1562 44.2977 21.0267 44.2998 20.8973C44.3607 17.4715 44.2329 14.0448 43.9169 10.6351Z" fill="black"/>
<path d="M44.6319 20.2197C45.2748 21.8965 45.6131 23.4107 45.6119 25.0179C45.629 26.4769 45.6498 27.1335 45.3479 28.3464C44.9296 30.0426 43.9296 31.4819 43.2644 32.3772C43.2761 32.3612 43.3211 32.2987 43.3891 32.2039C42.2706 33.6699 34.4161 41.9438 34.6215 40.132C34.7596 38.9148 41.6061 48.8679 39.3266 52.1187C39.0087 52.572 38.4679 52.7822 38.0203 53.0844C39.6256 52.606 32.7843 41.9547 34.2611 41.1451C37.9146 39.0354 46.8178 32.3698 46.8797 27.6007C46.8737 24.9638 46.152 22.3148 44.6319 20.2197Z" fill="black"/>
<path d="M19.7283 19.4072C17.5799 19.4643 17.5856 22.8355 19.7284 22.8988C21.8768 22.8417 21.8712 19.4705 19.7283 19.4072Z" fill="black"/>
<path d="M35.1678 20.4746C33.0194 20.5316 33.025 23.9029 35.1678 23.9661C37.3163 23.9091 37.3107 20.5379 35.1678 20.4746Z" fill="black"/>
<path d="M27.1518 27.7083C26.5336 27.6052 25.9084 27.5589 25.2829 27.5699C25.9236 27.7594 26.5662 27.9496 27.1923 28.1883C27.1939 28.1734 27.2123 28.1902 27.2337 28.2092C26.7794 28.7796 26.119 29.45 25.591 30.045C25.4112 30.2489 25.2159 30.4365 25.0072 30.6057C24.7186 29.4747 24.6005 28.1906 24.3349 27.0215C24.2877 28.1172 24.2639 29.2162 24.3187 30.3121C24.3116 31.369 24.846 31.745 25.6252 31.0029C26.3406 30.3035 26.9807 29.5206 27.5338 28.6689C27.9382 28.1627 27.7462 27.7832 27.1518 27.7083Z" fill="black"/>
<path d="M26.4184 33.788C25.6503 33.8948 24.8694 33.7948 24.1465 33.497C23.3299 33.1434 22.416 32.3101 21.5957 31.6895C22.2648 32.5579 22.9556 33.4999 23.9398 33.9669C24.4073 34.164 24.9085 34.2525 25.4104 34.2267C25.9122 34.2008 26.4032 34.0611 26.8509 33.8169C26.985 33.7415 27.1136 33.6557 27.2359 33.5601C26.9719 33.6674 26.6978 33.7438 26.4184 33.788V33.788Z" fill="black"/>
<path d="M72.7808 11.5811C71.9958 10.1316 70.8942 8.90784 69.5704 8.01476C68.166 6.96215 66.4005 6.44382 64.7271 7.002C64.4192 7.0479 62.4155 7.88862 63.2013 7.67067C64.3832 7.42944 65.6676 7.23895 66.8668 7.74494C69.318 9.01447 71.0317 11.6868 71.5648 14.6486C71.711 15.6661 71.5142 16.7061 71.0095 17.5823C70.4095 18.6092 69.5734 19.4541 68.5814 20.036C67.5894 20.618 66.4746 20.9176 65.3435 20.9062C63.0813 20.7966 60.8832 20.1187 59.2477 18.0861C58.6309 17.2187 57.6742 14.913 58.0354 13.4823C58.5924 10.7913 60.9811 9.5206 63.4868 9.77209C60.8278 8.83034 57.842 9.9901 56.733 12.834C55.9629 14.7739 56.4124 17.0525 57.2342 18.8923C59.7853 23.9171 66.9756 25.6527 71.0919 21.8333C74.174 19.2397 74.9215 15.1402 72.7808 11.5811Z" fill="black"/>
<path d="M28.5353 42.6621C26.3279 43.1402 24.1206 43.6183 21.9133 44.0964C20.0107 54.0226 18.1079 63.9488 16.2051 73.875C27.9563 82.4137 32.9283 48.2592 28.5353 42.6621Z" fill="#CFBF8B"/>
<path d="M7.65016 84.3494C6.95176 84.0236 6.30428 83.5847 5.73042 83.0481C5.16575 82.528 4.69753 81.8987 4.35023 81.1931C4.18446 80.8491 4.05603 80.486 3.96744 80.1107C3.88415 79.7418 3.84572 79.3629 3.8531 78.9834C3.87381 78.226 4.05136 77.483 4.37292 76.808C4.69817 76.1229 5.11432 75.4919 5.60841 74.9345C6.1142 74.368 6.66707 73.8519 7.2602 73.3927C8.4531 72.4361 9.79681 71.5981 11.0557 70.4819C12.3249 69.3654 13.4232 68.0431 14.3108 66.5629C15.2032 65.0839 15.897 63.4778 16.3715 61.7917C17.3497 58.3883 17.3827 54.7536 16.4667 51.3304C16.3336 50.9234 16.201 50.5173 16.0689 50.1123C15.9247 49.7143 15.7665 49.3347 15.612 48.9661C15.3013 48.2298 14.9955 47.5376 14.759 46.8575C14.642 46.5267 14.5428 46.189 14.4617 45.8461C14.3856 45.5231 14.3365 45.1935 14.3151 44.8612C14.2639 44.2257 14.3502 43.5861 14.5673 42.9922C14.7793 42.4378 15.1632 41.9787 15.6545 41.6923C16.2186 41.3855 16.8347 41.2038 17.466 41.158C18.1615 41.096 18.8596 41.0718 19.5575 41.0855C20.2735 41.0819 21.4103 43.7532 22.1237 43.7496C27.8315 43.7109 29.7442 40.6419 35.4739 40.5558C29.8652 40.0622 27.0667 39.8809 20.775 39.4673C20.3817 39.4417 19.9877 39.4161 19.5931 39.3904C19.2021 39.3656 18.7978 39.3369 18.3761 39.3232C17.4688 39.2677 16.559 39.3609 15.678 39.5995C15.1788 39.747 14.7049 39.9795 14.2746 40.2881C13.8249 40.6143 13.438 41.0301 13.1348 41.5127C12.8455 41.9779 12.6299 42.491 12.4966 43.0314C12.3693 43.5409 12.3005 44.0651 12.2917 44.5925C12.2822 45.1039 12.3215 45.615 12.4092 46.1178C12.4936 46.5931 12.6084 47.0617 12.7529 47.5201C13.0309 48.4127 13.3734 49.2236 13.6776 49.9968C13.8265 50.3846 13.9822 50.7573 14.091 51.1346L14.2669 51.6996C14.3312 51.8859 14.3848 52.0762 14.4275 52.2695L14.5605 52.8485C14.6103 53.04 14.6506 53.2342 14.6813 53.4303C14.7361 53.8238 14.8124 54.2138 14.8532 54.6091C15.1881 57.7728 14.7097 60.9744 13.4697 63.8682C12.8732 65.2751 12.0989 66.5875 11.1688 67.7686C10.9449 68.0631 10.7061 68.3442 10.4535 68.6106L10.077 69.0088C9.95319 69.1429 9.82717 69.2748 9.69206 69.3985C9.16125 69.9022 8.59343 70.3782 8.02037 70.8587C6.87617 71.8194 5.69654 72.8014 4.75954 74.0505C4.29332 74.6633 3.90386 75.3388 3.60103 76.0597C3.45309 76.4179 3.33254 76.7883 3.24058 77.1673C3.15291 77.5448 3.0981 77.9301 3.07685 78.3184C3.03982 79.0787 3.16035 79.8384 3.4298 80.5428C3.55727 80.8803 3.71739 81.2026 3.90755 81.5043C4.08918 81.7989 4.29504 82.0755 4.52268 82.3309C4.95865 82.822 5.45792 83.2439 6.00533 83.5837C6.522 83.9107 7.07448 84.1679 7.65016 84.3494V84.3494Z" fill="black"/>
<path d="M16.6328 78.1166C18.1516 75.6722 19.3525 72.9755 19.7898 70.1006C20.0975 67.2841 19.6425 64.5799 19.1452 61.9004C18.5642 64.4234 18.0147 67.3599 17.5401 70.2168C17.0744 73.0742 16.6862 75.8595 16.6328 78.1166Z" fill="black"/>
<path d="M48.8075 84.9603C49.269 84.9088 49.7068 84.7158 50.0685 84.4045C50.431 84.0608 50.6562 83.5808 50.6972 83.0641C50.7361 82.5581 50.6887 82.0487 50.5572 81.5609C50.4338 81.0848 50.285 80.6167 50.1118 80.1588C49.4668 78.3423 48.8106 76.5278 48.1431 74.7155C46.8068 71.0923 45.4122 67.4899 43.9595 63.9081C41.0736 56.9971 38.1339 50.7536 35.1445 44.2822C37.5881 50.8759 40.5848 58.5657 43.5816 65.9282C45.0797 69.6094 46.5781 73.2089 48.0073 76.5484C48.3668 77.3823 48.7193 78.2001 49.0651 79.0017C49.2395 79.4012 49.4119 79.7962 49.5822 80.1866C49.7527 80.579 49.9276 80.957 50.0699 81.3359C50.2154 81.7051 50.3233 82.0901 50.3916 82.4841C50.4608 82.8592 50.4464 83.2466 50.3495 83.6147C50.2439 83.9725 50.0349 84.2851 49.7527 84.5075C49.4684 84.7235 49.1473 84.8773 48.8075 84.9603V84.9603Z" fill="black"/>
<path d="M28.0763 60.6963C27.4907 63.4925 26.7966 66.0729 26.4194 68.7149C26.291 70.0115 26.2402 71.2946 26.1796 72.6053C26.121 73.9159 26.0403 75.2473 25.8652 76.6117C26.5742 75.4388 27.1638 74.1879 27.6242 72.8806C28.1115 71.4891 28.4591 70.046 28.6612 68.5757C28.8602 67.1624 28.9059 65.7291 28.7976 64.3045C28.7102 63.0724 28.4676 61.8587 28.0763 60.6963V60.6963Z" fill="black"/>
<path d="M49.091 75.5523C50.6307 75.5567 52.1467 75.1458 53.4991 74.3576C54.8809 73.5589 56.0898 72.457 57.0469 71.1239C57.5339 70.4521 57.9548 69.7281 58.3028 68.9637C58.6487 68.1965 58.9316 67.3986 59.1484 66.5789C59.5739 64.9334 59.7665 63.2287 59.7197 61.5219C59.6735 59.8192 59.4354 58.1288 59.0107 56.4873C58.5881 54.8628 58.0347 53.2807 57.3568 51.7587C56.689 50.2569 55.9456 48.795 55.1298 47.3795C54.7303 46.6772 54.3136 45.9652 53.8366 45.2635C53.351 44.5362 52.7962 43.8649 52.1811 43.2605C51.9298 43.0234 51.6659 42.8023 51.3905 42.5981C51.2567 42.4931 51.1025 42.3976 50.9583 42.2992C50.807 42.2112 50.66 42.1149 50.504 42.0382C50.1967 41.8757 49.8786 41.7377 49.5523 41.6254L49.2727 41.5386C49.1411 41.4967 49.0072 41.4637 48.8717 41.4401L48.4727 41.3581C48.3423 41.3412 48.2142 41.3339 48.0855 41.3214L47.8932 41.3043C47.83 41.3005 47.771 41.3047 47.7097 41.3045L47.347 41.3095C47.2323 41.3195 47.1231 41.3372 47.0115 41.3505L46.8453 41.3719C46.7918 41.3811 46.7429 41.3953 46.6916 41.4066L46.3878 41.4783L46.1094 41.5729L45.9713 41.6203L45.8446 41.678L45.5929 41.7934L45.0967 42.0473L44.5723 42.3235L44.4391 42.3948L44.3835 42.447L44.2766 42.5516C44.2072 42.6214 44.1416 42.6915 44.0801 42.7619C44.603 43.1239 45.1252 43.4853 45.6465 43.8461L45.8392 43.9799C45.9019 44.0243 45.9511 44.0677 46.0075 44.1115L46.3336 44.3721L46.9756 44.8856C47.0822 44.9702 47.1885 45.0541 47.2802 45.1406C47.4032 45.2649 47.4277 45.2856 47.4823 45.3388L47.7832 45.6274C47.9836 45.8203 48.1643 46.0346 48.3572 46.2369C49.1026 47.0775 49.7556 48.0069 50.3034 49.0068C51.4215 51.0275 52.0709 53.3059 52.197 55.6509C52.302 58.0557 51.8729 60.4529 50.9447 62.6455C49.9969 64.9268 48.5457 66.9273 46.716 68.4748C48.6036 67.1541 50.1797 65.3827 51.3205 63.2997C52.5399 61.1023 53.2468 58.6226 53.3815 56.0705C53.4977 53.4114 52.9786 50.7645 51.8735 48.3802C51.3207 47.1728 50.6316 46.0427 49.8215 45.0154C49.611 44.7644 49.4059 44.5075 49.1884 44.2625L48.8518 43.9049L48.7675 43.8156L48.7253 43.771L48.7042 43.7487L48.7117 43.7554C48.7244 43.7706 48.7181 43.7636 48.7197 43.7651V43.7648C48.7199 43.7633 48.7214 43.7635 48.7214 43.7635C48.7225 43.7639 48.718 43.7624 48.7192 43.7593C48.7197 43.7584 48.7203 43.7577 48.7211 43.7572L48.7232 43.7565L48.8204 43.788C48.8679 43.8025 48.9138 43.8242 48.9606 43.8417C49.3362 43.9894 49.6935 44.1856 50.0247 44.426C50.7299 44.9692 51.3521 45.6264 51.869 46.3742C52.4218 47.1436 52.9306 48.0063 53.4415 48.8812C54.4497 50.5849 55.3508 52.3585 56.1389 54.1904C56.898 55.95 57.4589 57.8002 57.8097 59.7018C58.1397 61.5266 58.1984 63.3957 57.9838 65.2401C57.7821 66.9987 57.2493 68.6952 56.4178 70.2269C55.6071 71.6751 54.5154 72.9199 53.2167 73.8771C51.9883 74.7848 50.5725 75.3596 49.091 75.5523V75.5523Z" fill="black"/>
<path d="M14.3207 79.2275C14.117 79.352 13.9042 79.4879 13.6844 79.6353C11.9899 80.761 9.82175 82.4937 7.64473 84.3661C6.93517 84.9768 6.22543 85.601 5.53019 86.2232C3.38703 88.1453 1.387 90.0579 0 91.4861C1.35602 89.5781 2.8077 87.7502 4.34864 86.0106C4.69199 85.622 5.51239 84.7509 6.45253 83.763C7.98964 82.151 9.84322 80.2365 10.4456 79.6487L11.4788 79.6602L13.4736 79.6812L14.3207 79.2275Z" fill="black"/>
<path d="M52.213 85.4303C49.6426 82.6652 46.5081 80.5559 43.2759 78.7916C41.3916 77.8663 39.4124 77.2 37.4195 76.5947L30.502 78.072C30.7027 78.0986 30.901 78.127 31.094 78.1593C33.989 78.6988 36.8173 79.6164 39.6094 80.5849C42.4608 81.5701 44.4463 82.7559 47.5162 84.7347C51.9085 87.6002 56.8589 93.4903 61.017 99.2174C61.2074 99.4783 61.398 99.7392 61.5886 100C59.0688 94.7401 56.0813 89.6783 52.213 85.4303Z" fill="black"/>
<path d="M29.8937 76.1735L17.0743 78.9113L14.7025 79.4186L13.6854 79.635L13.4745 79.6809L10.2715 80.3644C10.6717 80.1174 11.0758 79.882 11.4797 79.6598C12.7452 78.9532 14.0665 78.3676 15.4281 77.9099C15.4657 77.8966 15.5032 77.8851 15.5407 77.8736C20.3221 76.2769 25.8559 75.6394 29.8937 76.1735Z" fill="black"/>
<path d="M49.3226 76.1464C48.056 76.8729 46.6935 77.3883 45.2819 77.675C44.6205 77.8133 43.9521 77.9101 43.2801 77.9649C42.7208 78.0306 42.1552 77.9963 41.6063 77.8634C41.4013 77.8221 41.2045 77.7431 41.0247 77.6298C40.8171 77.4866 40.6352 77.3046 40.4876 77.0926C40.307 76.8388 40.1528 76.5647 40.028 76.275C39.8894 75.9658 39.7749 75.6449 39.6857 75.3156C39.2779 73.8134 39.3998 72.2032 40.028 70.791C39.4346 71.4275 38.9702 72.1884 38.664 73.0261C38.3579 73.8637 38.2164 74.76 38.2486 75.6589C38.2664 76.1462 38.333 76.6299 38.4471 77.102C38.57 77.6137 38.7672 78.1015 39.0315 78.5477C39.1783 78.7928 39.3504 79.0194 39.5445 79.2234C39.7468 79.4347 39.9732 79.6178 40.2183 79.7684C40.6757 80.0438 41.1806 80.2168 41.7023 80.277C42.5708 80.3588 43.4459 80.2598 44.2793 79.9854C45.0274 79.763 45.7475 79.4436 46.4235 79.0345C47.5962 78.3407 48.5917 77.349 49.3226 76.1464V76.1464Z" fill="black"/>
<path d="M12.2527 71.6953C12.0665 73.2212 11.6643 74.7078 11.0599 76.1039C10.7796 76.7604 10.4639 77.3987 10.1141 78.0157C9.8383 78.5411 9.48284 79.0137 9.06227 79.4141C8.91164 79.5686 8.73712 79.694 8.54646 79.7845C8.31685 79.8818 8.07281 79.9343 7.82591 79.9394C7.52811 79.949 7.23023 79.9235 6.93761 79.8635C6.62229 79.8042 6.31209 79.717 6.01021 79.6028C4.6326 79.0832 3.48134 78.0395 2.77539 76.67C2.91293 77.5574 3.22005 78.4048 3.67753 79.1592C4.13501 79.9136 4.73298 80.5587 5.43401 81.0541C5.81409 81.3224 6.21998 81.5463 6.6447 81.7217C7.10468 81.9127 7.5898 82.025 8.08233 82.0546C8.35389 82.0696 8.62616 82.0517 8.894 82.0014C9.17214 81.9483 9.44292 81.8578 9.69991 81.7321C10.1753 81.4941 10.6006 81.1552 10.9502 80.7361C11.518 80.0275 11.9524 79.2078 12.2295 78.3224C12.4964 77.5414 12.6733 76.7284 12.7563 75.9015C12.9128 74.4764 12.7399 73.032 12.2527 71.6953V71.6953Z" fill="black"/>
</g>
<defs>
<clipPath id="clip0_495_1732">
<rect width="74" height="100" fill="white"/>
</clipPath>
</defs>
</svg>
