<svg width="30" height="30" viewBox="0 0 30 30" fill="none" xmlns="http://www.w3.org/2000/svg">
<path d="M26.6574 16.8516L26.6938 26.2324C26.6938 26.3965 26.6834 26.5488 26.6678 26.707V27.6562C26.6678 28.9512 25.7354 30 24.5844 30H23.751C23.6937 30 23.6364 29.9473 23.5791 29.9941C23.5062 29.9473 23.4333 30 23.3603 30H20.4175C19.2664 30 18.3341 28.9512 18.3341 27.6562V22.5C18.3341 21.4629 17.5893 20.625 16.6674 20.625H13.3339C12.412 20.625 11.6672 21.4629 11.6672 22.5V27.6562C11.6672 28.9512 10.7348 30 9.58373 30H6.67215C6.59402 30 6.5159 29.9941 6.43777 29.9883C6.37526 29.9941 6.31276 30 6.25026 30H5.41689C4.26632 30 3.33347 28.9512 3.33347 27.6562V21.0938C3.33347 21.041 3.33503 20.9824 3.33816 20.9297V16.8516H1.66934C0.730239 16.8516 0 16.0254 0 14.9707C0 14.4434 0.156465 13.9746 0.521376 13.5645L13.8756 0.469687C14.2402 0.0587109 14.6569 0 15.0215 0C15.3861 0 15.8027 0.117422 16.1205 0.410977L21.6676 5.90039V3.75C21.6676 2.71465 22.4124 1.875 23.3343 1.875H25.001C25.923 1.875 26.6678 2.71465 26.6678 3.75V10.8398L29.4179 13.5645C29.8346 13.9746 30.0481 14.4434 29.9908 14.9707C29.9908 16.0254 29.2095 16.8516 28.3241 16.8516H26.6574Z" fill="black"/>
</svg>
