<svg width="30" height="30" viewBox="0 0 30 30" fill="none" xmlns="http://www.w3.org/2000/svg">
<path d="M15 2.7C19 2.7 19.5 2.7 21.1 2.8C22.6 2.9 23.4 3.1 23.9 3.3C24.6 3.6 25.1 3.9 25.6 4.4C26.1 4.9 26.5 5.4 26.7 6.1C26.9 6.6 27.1 7.4 27.2 8.9C27.3 10.5 27.3 11 27.3 15C27.3 19 27.3 19.5 27.2 21.1C27.1 22.6 26.9 23.4 26.7 23.9C26.4 24.6 26.1 25.1 25.6 25.6C25.1 26.1 24.6 26.5 23.9 26.7C23.4 26.9 22.6 27.1 21.1 27.2C19.5 27.3 19 27.3 15 27.3C11 27.3 10.5 27.3 8.9 27.2C7.4 27.1 6.6 26.9 6.1 26.7C5.4 26.4 4.9 26.1 4.4 25.6C3.9 25.1 3.5 24.6 3.3 23.9C3.1 23.4 2.9 22.6 2.8 21.1C2.7 19.5 2.7 19 2.7 15C2.7 11 2.7 10.5 2.8 8.9C2.9 7.4 3.1 6.6 3.3 6.1C3.6 5.4 3.9 4.9 4.4 4.4C4.9 3.9 5.4 3.5 6.1 3.3C6.6 3.1 7.4 2.9 8.9 2.8C10.5 2.7 11 2.7 15 2.7ZM15 0C10.9 0 10.4 -9.68575e-08 8.8 0.0999999C7.2 0.2 6.1 0.4 5.2 0.8C4.2 1.2 3.4 1.7 2.5 2.5C1.7 3.3 1.2 4.2 0.8 5.2C0.4 6.2 0.2 7.2 0.0999999 8.8C-9.68575e-08 10.4 0 10.9 0 15C0 19.1 -9.68575e-08 19.6 0.0999999 21.2C0.2 22.8 0.4 23.9 0.8 24.8C1.2 25.8 1.7 26.6 2.5 27.5C3.3 28.3 4.2 28.8 5.2 29.2C6.2 29.6 7.2 29.8 8.8 29.9C10.4 30 10.9 30 15 30C19.1 30 19.6 30 21.2 29.9C22.8 29.8 23.9 29.6 24.8 29.2C25.8 28.8 26.6 28.3 27.5 27.5C28.3 26.7 28.8 25.8 29.2 24.8C29.6 23.8 29.8 22.8 29.9 21.2C30 19.6 30 19.1 30 15C30 10.9 30 10.4 29.9 8.8C29.8 7.2 29.6 6.1 29.2 5.2C28.8 4.2 28.3 3.4 27.5 2.5C26.7 1.7 25.8 1.2 24.8 0.8C23.8 0.4 22.8 0.2 21.2 0.0999999C19.6 -9.68575e-08 19.1 0 15 0Z" fill="black"/>
<path d="M15.0008 7.2998C10.7008 7.2998 7.30078 10.6998 7.30078 14.9998C7.30078 19.2998 10.7008 22.6998 15.0008 22.6998C19.3008 22.6998 22.7008 19.2998 22.7008 14.9998C22.7008 10.6998 19.3008 7.2998 15.0008 7.2998ZM15.0008 19.9998C12.2008 19.9998 10.0008 17.7998 10.0008 14.9998C10.0008 12.1998 12.2008 9.9998 15.0008 9.9998C17.8008 9.9998 20.0008 12.1998 20.0008 14.9998C20.0008 17.7998 17.8008 19.9998 15.0008 19.9998Z" fill="black"/>
<path d="M24.7992 7.0002C24.7992 8.0002 23.9992 8.8002 22.9992 8.8002C21.9992 8.8002 21.1992 8.0002 21.1992 7.0002C21.1992 6.0002 21.9992 5.2002 22.9992 5.2002C23.9992 5.2002 24.7992 6.0002 24.7992 7.0002Z" fill="black"/>
</svg>
