<svg width="29" height="97" viewBox="0 0 29 97" fill="none" xmlns="http://www.w3.org/2000/svg">
<g clip-path="url(#clip0_495_1753)">
<path d="M11.2401 29.0024C11.7459 24.3176 12.7724 19.6808 14.3067 15.1504C11.2916 19.6635 8.90462 24.4423 7.19093 29.3961C4.52697 36.7032 3.13963 44.3494 3.57795 51.9845C3.79853 58.14 4.80731 64.3219 7.48423 70.1018C8.2494 71.69 8.94622 73.3463 10.1648 74.7438C9.96021 74.2773 9.8074 73.7965 9.7082 73.3074C9.29955 71.3227 9.0202 69.3214 8.87135 67.3121C8.21723 59.3592 9.32421 51.4132 9.80163 43.4736C10.081 38.6375 10.611 33.8154 11.2401 29.0024Z" fill="#9EC19F"/>
<path d="M28.839 48.5282C28.3158 42.3998 27.018 36.3295 25.5194 30.3171C23.0841 20.8024 18.9845 7.24349 15.4744 1.48103C14.3499 -0.678907 10.9751 -0.419525 10.296 1.88883C9.2594 5.32461 8.19942 8.75573 7.11611 12.1822C4.82566 19.6237 2.2869 27.0417 0.957041 34.6526C-0.130199 41.1211 -0.362496 47.7002 0.632055 54.1871C1.19883 57.7014 1.90335 61.247 3.43127 64.5748C5.54523 69.0259 9.31499 72.8144 12.564 76.7528C12.3596 79.2151 12.2686 81.6851 12.2542 84.1515C12.112 88.4331 12.0009 92.7168 12.0626 97C12.9802 93.6301 13.8489 90.2449 14.5306 86.836C14.7203 86.6687 14.909 86.5008 15.0969 86.3323C15.3451 86.2975 15.5814 86.2192 15.7897 86.1027C15.9979 85.9863 16.1734 85.8343 16.3041 85.6571C17.8376 84.032 18.5639 83.2175 19.5661 82.1329C20.2869 81.4961 21.264 80.7641 20.6291 80.0367C20.1977 79.5824 19.6109 79.6464 19.1258 79.91C19.251 79.6803 19.3791 79.4515 19.504 79.2217C18.8269 79.9135 18.1579 80.6106 17.497 81.313C17.136 81.6725 16.7924 82.044 16.4613 82.4234C15.9785 82.9525 15.5024 83.4859 15.0446 84.0301C15.263 82.7109 15.4509 81.3882 15.5926 80.0606C16.1801 73.3422 16.5349 66.6105 16.657 59.8655C16.6589 59.5763 16.6612 59.2871 16.6639 58.9979C15.8258 61.1235 15.1221 63.2839 14.5172 65.4623C13.527 69.0825 12.883 72.761 12.5912 76.4641C10.1359 72.0324 7.3096 68.1984 5.87888 63.7712C4.80883 59.968 4.55801 56.2336 4.3619 51.6763C4.22707 46.864 4.32518 42.0392 5.02401 37.2555C5.82301 30.6974 10.3563 17.826 13.6655 7.79646C15.3842 11.7337 16.6944 15.7897 17.9128 19.8491C19.6446 25.4817 21.2683 31.1418 22.4516 36.8721C23.7681 43.7538 24.978 49.4412 24.8945 57.1473C24.6175 60.5119 23.8237 64.9024 22.0258 69.051C21.1738 71.0276 19.414 73.3813 17.4203 75.2532C17.2779 75.3931 17.1322 75.5307 16.9878 75.6689C18.649 74.6919 20.1668 73.5591 21.5103 72.2934C23.8015 70.0797 25.3252 67.4025 26.4324 64.6587C27.3188 62.4212 28.1667 60.1565 28.5834 57.8229C29.0436 54.7393 29.1292 51.6257 28.839 48.5282V48.5282Z" fill="black"/>
</g>
<defs>
<clipPath id="clip0_495_1753">
<rect width="29" height="97" fill="white"/>
</clipPath>
</defs>
</svg>
